<svg xmlns="http://www.w3.org/2000/svg" viewBox="0 0 192 192">
  <!-- Background -->
  <rect width="192" height="192" rx="42" fill="#6c63ff"/>

  <!-- Open book — left page -->
  <path d="M48 126 L48 66 Q96 54 96 66 L96 126" fill="white" opacity="0.95"/>

  <!-- Open book — right page -->
  <path d="M144 126 L144 66 Q96 54 96 66 L96 126" fill="white" opacity="0.72"/>

  <!-- Spine -->
  <line x1="96" y1="66" x2="96" y2="126" stroke="#6c63ff" stroke-width="2.5"/>

  <!-- Book base curve -->
  <path d="M48 126 Q96 141 144 126" stroke="white" stroke-width="5" fill="none" stroke-linecap="round"/>

  <!-- Neural cluster — main dot -->
  <circle cx="126" cy="45" r="11" fill="white"/>
  <!-- Secondary dots -->
  <circle cx="147" cy="30" r="7" fill="white" opacity="0.7"/>
  <circle cx="114" cy="27" r="5.5" fill="white" opacity="0.5"/>
  <circle cx="156" cy="48" r="4.5" fill="white" opacity="0.4"/>
  <!-- Connection lines -->
  <line x1="126" y1="34" x2="126" y2="28" stroke="white" stroke-width="2.5" opacity="0.4"/>
  <line x1="134" y1="38" x2="141" y2="32" stroke="white" stroke-width="2.5" opacity="0.4"/>
  <line x1="118" y1="37" x2="115" y2="29" stroke="white" stroke-width="2.5" opacity="0.4"/>
  <line x1="136" y1="44" x2="152" y2="47" stroke="white" stroke-width="2" opacity="0.3"/>
</svg>
